<?xml version="1.0" encoding="UTF-8"?>
<svg width="140px" height="140px" viewBox="0 0 140 140" version="1.1" xmlns="http://www.w3.org/2000/svg" xmlns:xlink="http://www.w3.org/1999/xlink">
    <title>数据样式-7-0</title>
    <g id="规范" stroke="none" stroke-width="1"  fill-rule="evenodd">
        <g id="通用组件" transform="translate(-1834.000000, -3272.000000)">
            <g id="数据展示" transform="translate(80.000000, 3086.000000)">
                <g id="编组-104" transform="translate(1754.000000, 150.000000)">
                    <g id="数据样式-7-0" transform="translate(0.000000, 36.000000)">
                        <path d="M70,2.77227723 C71.5256156,2.77227723 73.0454485,2.82317341 74.5577776,2.9245289 L75.4642609,2.99139382 L74.6855221,12.6630637 C73.1333949,12.5380903 71.5707719,12.4752475 70,12.4752475 C38.2299565,12.4752475 12.4752475,38.2299565 12.4752475,70 C12.4752475,101.770044 38.2299565,127.524752 70,127.524752 C101.770044,127.524752 127.524752,101.770044 127.524752,70 C127.524752,53.2519056 120.332669,37.6807305 108.019205,26.8290848 L107.644504,26.5016953 L113.997517,19.1677428 C128.645307,31.8563439 137.227723,50.2377933 137.227723,70 C137.227723,107.128846 107.128846,137.227723 70,137.227723 C32.8711539,137.227723 2.77227723,107.128846 2.77227723,70 C2.77227723,32.8711539 32.8711539,2.77227723 70,2.77227723 Z" id="路径" fill="#4CC4FF" fill-rule="nonzero" opacity="0.395926339"></path>
                        <g id="编组-11" transform="translate(16.633663, 16.633663)" fill="#4CC4FF">
                            <polygon id="矩形" points="49.3234937 0.0137744279 51.4027016 0.706843735 52.0957709 2.78605166 50.016563 2.09298235"></polygon>
                            <polygon id="矩形" transform="translate(58.676862, 1.585913) rotate(9.000000) translate(-58.676862, -1.585913) " points="57.2907236 0.199774186 59.3699315 0.892843493 60.0630008 2.97205141 57.9837929 2.27898211"></polygon>
                            <polygon id="矩形" transform="translate(66.522327, 2.985925) rotate(18.000000) translate(-66.522327, -2.985925) " points="65.1361883 1.59978605 67.2153962 2.29285536 67.9084655 4.37206328 65.8292576 3.67899397"></polygon>
                            <polygon id="矩形" transform="translate(74.062135, 5.567134) rotate(26.000000) translate(-74.062135, -5.567134) " points="72.6759966 4.18099494 74.7552045 4.87406424 75.4482738 6.95327216 73.3690659 6.26020286"></polygon>
                            <polygon id="矩形" transform="translate(81.119560, 9.269038) rotate(35.000000) translate(-81.119560, -9.269038) " points="79.7334218 7.88289949 81.8126298 8.5759688 82.5056991 10.6551767 80.4264912 9.96210741"></polygon>
                            <polygon id="矩形" transform="translate(87.529183, 14.004869) rotate(44.000000) translate(-87.529183, -14.004869) " points="86.143044 12.6187302 88.2222519 13.3117995 88.9153212 15.3910074 86.8361133 14.6979381"></polygon>
                            <polygon id="矩形" transform="translate(93.140766, 19.663622) rotate(53.000000) translate(-93.140766, -19.663622) " points="91.7546269 18.2774832 93.8338349 18.9705525 94.5269042 21.0497605 92.4476962 20.3566911"></polygon>
                            <polygon id="矩形" transform="translate(97.822779, 26.112661) rotate(61.000000) translate(-97.822779, -26.112661) " points="96.4366399 24.7265222 98.5158478 25.4195915 99.2089171 27.4987994 97.1297092 26.8057301"></polygon>
                            <polygon id="矩形" transform="translate(101.465479, 33.200826) rotate(70.000000) translate(-101.465479, -33.200826) " points="100.07934 31.8146871 102.158548 32.5077564 102.851618 34.5869643 100.77241 33.893895"></polygon>
                            <polygon id="矩形" transform="translate(103.983485, 40.761976) rotate(79.000000) translate(-103.983485, -40.761976) " points="102.597347 39.3758373 104.676555 40.0689066 105.369624 42.1481145 103.290416 41.4550452"></polygon>
                            <polygon id="矩形" transform="translate(105.317778, 48.618885) rotate(88.000000) translate(-105.317778, -48.618885) " points="103.931639 47.2327459 106.010847 47.9258152 106.703916 50.0050231 104.624708 49.3119538"></polygon>
                            <polygon id="矩形" transform="translate(105.437081, 56.587392) rotate(97.000000) translate(-105.437081, -56.587392) " points="104.050942 55.2012536 106.13015 55.8943229 106.82322 57.9735308 104.744012 57.2804615"></polygon>
                            <polygon id="矩形" transform="translate(104.338599, 64.480724) rotate(105.000000) translate(-104.338599, -64.480724) " points="102.952461 63.0945854 105.031669 63.7876547 105.724738 65.8668626 103.64553 65.1737933"></polygon>
                            <polygon id="矩形" transform="translate(102.048080, 72.113867) rotate(114.000000) translate(-102.048080, -72.113867) " points="100.661941 70.7277282 102.741149 71.4207975 103.434218 73.5000054 101.355011 72.8069361"></polygon>
                            <polygon id="矩形" transform="translate(98.619211, 79.307906) rotate(123.000000) translate(-98.619211, -79.307906) " points="97.2330719 77.9217677 99.3122798 78.614837 100.005349 80.6940449 97.9261412 80.0009756"></polygon>
                            <polygon id="矩形" transform="translate(94.132361, 85.894220) rotate(132.000000) translate(-94.132361, -85.894220) " points="92.7462225 84.5080816 94.8254304 85.2011509 95.5184997 87.2803588 93.4392918 86.5872895"></polygon>
                            <polygon id="矩形" transform="translate(88.692700, 91.718431) rotate(140.000000) translate(-88.692700, -91.718431) " points="87.3065609 90.3322924 89.3857688 91.0253617 90.0788382 93.1045696 87.9996302 92.4115003"></polygon>
                            <polygon id="矩形" transform="translate(82.427727, 96.644024) rotate(149.000000) translate(-82.427727, -96.644024) " points="81.0415883 95.2578854 83.1207962 95.9509547 83.8138655 98.0301626 81.7346576 97.3370933"></polygon>
                            <polygon id="矩形" transform="translate(75.484289, 100.555548) rotate(158.000000) translate(-75.484289, -100.555548) " points="74.0981502 99.169409 76.1773582 99.8624783 76.8704275 101.941686 74.7912196 101.248617"></polygon>
                            <polygon id="矩形" transform="translate(68.025134, 103.361319) rotate(167.000000) translate(-68.025134, -103.361319) " points="66.6389951 101.97518 68.718203 102.66825 69.4112723 104.747458 67.3320644 104.054388"></polygon>
                            <polygon id="矩形" transform="translate(60.225098, 104.995573) rotate(176.000000) translate(-60.225098, -104.995573) " points="58.838959 103.609434 60.918167 104.302504 61.6112363 106.381712 59.5320283 105.688642"></polygon>
                            <polygon id="矩形" transform="translate(52.267007, 105.420005) rotate(184.000000) translate(-52.267007, -105.420005) " points="50.8808684 104.033866 52.9600763 104.726935 53.6531456 106.806143 51.5739377 106.113074"></polygon>
                            <polygon id="矩形" transform="translate(44.337393, 104.624665) rotate(193.000000) translate(-44.337393, -104.624665) " points="42.951254 103.238526 45.030462 103.931596 45.7235313 106.010804 43.6443233 105.317734"></polygon>
                            <polygon id="矩形" transform="translate(36.622118, 102.628197) rotate(202.000000) translate(-36.622118, -102.628197) " points="35.2359794 101.242058 37.3151873 101.935127 38.0082566 104.014335 35.9290487 103.321266"></polygon>
                            <polygon id="矩形" transform="translate(29.302023, 99.477395) rotate(211.000000) translate(-29.302023, -99.477395) " points="27.915884 98.0912563 29.9950919 98.7843256 30.6881612 100.863534 28.6089533 100.170464"></polygon>
                            <polygon id="矩形" transform="translate(22.548683, 95.246112) rotate(220.000000) translate(-22.548683, -95.246112) " points="21.1625446 93.8599732 23.2417526 94.5530425 23.9348219 96.6322504 21.855614 95.9391811"></polygon>
                            <polygon id="矩形" transform="translate(16.520393, 90.033525) rotate(228.000000) translate(-16.520393, -90.033525) " points="15.1342539 88.6473866 17.2134618 89.3404559 17.9065311 91.4196638 15.8273232 90.7265945"></polygon>
                            <polygon id="矩形" transform="translate(11.358448, 83.961814) rotate(237.000000) translate(-11.358448, -83.961814) " points="9.97230978 82.575675 12.0515177 83.2687443 12.744587 85.3479522 10.6653791 84.6548829"></polygon>
                            <polygon id="矩形" transform="translate(7.183843, 77.173293) rotate(246.000000) translate(-7.183843, -77.173293) " points="5.79770389 75.7871542 7.87691181 76.4802235 8.56998112 78.5594314 6.4907732 77.8663621"></polygon>
                            <polygon id="矩形" transform="translate(4.094424, 69.827080) rotate(255.000000) translate(-4.094424, -69.827080) " points="2.70828545 68.4409414 4.78749337 69.1340107 5.48056268 71.2132186 3.40135476 70.5201493"></polygon>
                            <polygon id="矩形" transform="translate(2.162606, 62.095364) rotate(263.000000) translate(-2.162606, -62.095364) " points="0.776467813 60.7092256 2.85567573 61.4022949 3.54874504 63.4815028 1.46953712 62.7884335"></polygon>
                            <polygon id="矩形" transform="translate(1.433670, 54.159370) rotate(272.000000) translate(-1.433670, -54.159370) " points="0.0475311418 52.7732316 2.12673906 53.466301 2.81980837 55.5455089 0.740600449 54.8524396"></polygon>
                            <polygon id="矩形" transform="translate(1.924700, 46.205111) rotate(281.000000) translate(-1.924700, -46.205111) " points="0.538561096 44.8189725 2.61776902 45.5120418 3.31083832 47.5912497 1.2316304 46.8981804"></polygon>
                            <polygon id="矩形" transform="translate(3.624187, 38.419028) rotate(290.000000) translate(-3.624187, -38.419028) " points="2.23804835 37.0328893 4.31725627 37.7259586 5.01032558 39.8051665 2.93111766 39.1120972"></polygon>
                            <polygon id="矩形" transform="translate(6.492297, 30.983620) rotate(299.000000) translate(-6.492297, -30.983620) " points="5.10615836 29.5974812 7.18536629 30.2905505 7.87843559 32.3697584 5.79922767 31.6766891"></polygon>
                            <polygon id="矩形" transform="translate(10.461804, 24.073166) rotate(307.000000) translate(-10.461804, -24.073166) " points="9.07566507 22.6870279 11.154873 23.3800972 11.8479423 25.4593051 9.76873438 24.7662358"></polygon>
                            <polygon id="矩形" transform="translate(15.439665, 17.849643) rotate(316.000000) translate(-15.439665, -17.849643) " points="14.0535266 16.4635045 16.1327345 17.1565738 16.8258038 19.2357817 14.7465959 18.5427124"></polygon>
                            <polygon id="矩形" transform="translate(21.309205, 12.458924) rotate(325.000000) translate(-21.309205, -12.458924) " points="19.9230661 11.0727851 22.002274 11.7658544 22.6953433 13.8450624 20.6161354 13.1519931"></polygon>
                            <polygon id="矩形" transform="translate(27.932845, 8.027362) rotate(334.000000) translate(-27.932845, -8.027362) " points="26.5467065 6.64122374 28.6259144 7.33429305 29.3189837 9.41350097 27.2397758 8.72043166"></polygon>
                            <polygon id="矩形" transform="translate(35.155334, 4.658831) rotate(342.000000) translate(-35.155334, -4.658831) " points="33.7691953 3.27269234 35.8484033 3.96576165 36.5414726 6.04496957 34.4622646 5.35190026"></polygon>
                            <polygon id="矩形" transform="translate(42.807382, 2.432285) rotate(351.000000) translate(-42.807382, -2.432285) " points="41.4212436 1.04614645 43.5004515 1.73921576 44.1935208 3.81842368 42.1143129 3.12535438"></polygon>
                        </g>
                        <path d="M77.4115988,3.17660099 C90.1201573,4.57144661 102.021711,9.54302837 111.894365,17.4191331 L112.355655,17.7904503 L106.238452,25.3222137 C97.8551434,18.5133964 87.7346567,14.1793583 76.9042959,12.8848509 L76.3529928,12.8216508 L77.4115988,3.17660099 Z" id="路径" fill="#FFDD77" fill-rule="nonzero" opacity="0.395926339"></path>
                        <path d="M70,0 C71.5899741,0 73.1736377,0.0530318296 74.7492452,0.15862501 L75.693629,0.228284516 L75.4711323,2.99161877 C73.6583491,2.845658 71.8336927,2.77227723 70,2.77227723 C32.8711539,2.77227723 2.77227723,32.8711539 2.77227723,70 C2.77227723,107.128846 32.8711539,137.227723 70,137.227723 C107.128846,137.227723 137.227723,107.128846 137.227723,70 C137.227723,50.4303822 128.819903,32.2271799 114.433323,19.5484084 L113.995538,19.1658984 L115.810685,17.0704834 C131.065952,30.28531 140,49.4198694 140,70 C140,108.659932 108.659932,140 70,140 C31.3400675,140 0,108.659932 0,70 C0,31.3400675 31.3400675,0 70,0 Z" id="路径" fill="#4CC4FF" fill-rule="nonzero"></path>
                        <path d="M77.7217548,0.421174227 C90.9550453,1.87361255 103.346132,7.05064058 113.627618,15.2551808 L114.100645,15.635999 L112.352873,17.7879314 C102.54322,9.82065519 90.6929844,4.75080091 78.0142155,3.24487995 L77.4192959,3.17690275 L77.7217548,0.421174227 Z" id="路径" fill="#FFDD77" fill-rule="nonzero"></path>
                    </g>
                </g>
            </g>
        </g>
    </g>
</svg>