<?xml version="1.0" encoding="UTF-8"?>
<svg width="83px" height="65px" viewBox="0 0 83 65" version="1.1" xmlns="http://www.w3.org/2000/svg" xmlns:xlink="http://www.w3.org/1999/xlink">
    <title>icon-wzzzrc</title>
    <defs>
        <linearGradient x1="50%" y1="100%" x2="50%" y2="11.5119485%" id="linearGradient-1">
            <stop stop-color="#53EAFF" offset="0%"></stop>
            <stop stop-color="#2DCCFF" stop-opacity="0" offset="100%"></stop>
        </linearGradient>
        <linearGradient x1="50%" y1="100%" x2="50%" y2="-2.48949813e-15%" id="linearGradient-2">
            <stop stop-color="#53C6FF" offset="0%"></stop>
            <stop stop-color="#01FFF9" offset="100%"></stop>
        </linearGradient>
    </defs>
    <g id="界面设计" stroke="none" stroke-width="1" fill="none" fill-rule="evenodd">
        <g id="信息化建设之规划管控" transform="translate(-2645.000000, -943.000000)" fill-rule="nonzero">
            <g id="编组-113" transform="translate(2560.000000, 590.000000)">
                <g id="icon-wzzzrc" transform="translate(85.000000, 353.011799)">
                    <path d="M41.5,25.9882007 C18.6893001,25.9882007 0,34.0268515 0,44.9882007 C0,55.94955 18.6893001,63.9882007 41.5,63.9882007 C64.3106999,63.9882007 83,55.94955 83,44.9882007 C83,34.0268515 64.3106999,25.9882007 41.5,25.9882007 Z M41.5,26.9882007 C61.764466,26.9882007 78,34.6507797 78,42.9882007 C78,51.3256218 61.764466,58.9882007 41.5,58.9882007 C21.235534,58.9882007 5,51.3256218 5,42.9882007 C5,34.6507797 21.235534,26.9882007 41.5,26.9882007 Z" id="椭圆形" fill="url(#linearGradient-1)"></path>
                    <path d="M53.7740157,6.42499998 C55.703009,6.42499998 57.264451,7.92499998 57.264451,9.77499998 L57.264451,46 C57.264451,48.209139 55.47359,50 53.264451,50 L22.493042,50 C20.6948212,50 19.1900947,48.6914476 19.0156405,46.9749999 L19,46.6499999 L19,9.77499998 C19,7.92499998 20.5640487,6.42499998 22.493042,6.42499998 L53.7740157,6.42499998 Z M57.884857,-8.8817842e-14 C61.0859433,-8.8817842e-14 63.6822641,2.49000001 63.6874775,5.55999995 L63.6874775,40.5945353 C63.6874775,42.8268045 61.9327025,44.6492241 59.7273225,44.7576239 L59.5192878,44.762725 L59.5192878,8.20749998 C59.5192878,6.02499997 57.7727668,4.23249997 55.5466042,4.05249995 L55.1712325,4.03749999 L25.6654541,4.03749999 C26.3667851,1.65350558 28.6323959,0.00525533452 31.2152202,-8.8817842e-14 L57.884857,-8.8817842e-14 Z M41.1303413,17.6009084 L37.3932947,20.9227276 L41.463,25.5 L28,25.5 L28,30.5 L41.927,30.5 L37.3932947,35.6009084 L41.1303413,38.9227276 L50.6067053,28.261818 L41.1303413,17.6009084 Z" id="形状结合" fill="url(#linearGradient-2)"></path>
                </g>
            </g>
        </g>
    </g>
</svg>